<svg width="394" height="234" viewBox="0 0 394 234" fill="none" xmlns="http://www.w3.org/2000/svg">
<g clip-path="url(#clip0_219_99)">
<path d="M353.438 -91.6836C359.338 -98.2616 369.453 -98.8105 376.031 -92.9102C397.487 -73.6646 415.579 -50.0352 427.927 -25.707C440.174 -1.57731 447.381 24.471 445.336 48.2793C443.219 72.9239 431.065 94.8807 406.142 107.595C382.3 119.757 348.86 122.384 305.637 114.803C205.851 97.3007 150.731 111.999 114.495 135.736C110.49 138.36 106.675 141.121 103.019 144H56.293C67.7735 131.555 80.9566 119.452 96.9609 108.968C142.116 79.3886 206.263 64.8838 311.165 83.2832C351.277 90.3188 376.631 86.7251 391.601 79.0889C405.488 72.0047 412.162 60.5859 413.454 45.541C414.818 29.6598 410.014 9.70379 399.392 -11.2236C388.87 -31.9528 373.234 -52.434 354.665 -69.0898C348.087 -74.9902 347.537 -85.1056 353.438 -91.6836Z" fill="#BA7026"/>
</g>
<defs>
<clipPath id="clip0_219_99">
<rect width="394" height="234" fill="white"/>
</clipPath>
</defs>
</svg>
