<svg width="425" height="372" viewBox="0 0 425 372" fill="none" xmlns="http://www.w3.org/2000/svg">
<path d="M125.722 0H121.222L124.722 23L125.722 0Z" fill="#2FAFFF"/>
<path d="M146.222 2.5L142.222 1L137.222 23L146.222 2.5Z" fill="#2FAFFF"/>
<path d="M105.223 59.5C106.082 51.4955 108.723 44 112.223 44L113.722 52.5C115.719 66.6712 120.218 65.4797 131.722 54C152.147 35.4884 152.956 44.3905 145.722 76C140.722 99.5 147.722 111.5 145.222 126.5C142.722 147 148.222 149 181.722 164C203.222 172.5 219.722 182 231.222 192C273.648 228.892 291.23 283.57 282.722 337C319.688 347.051 336.722 349.5 358.222 345C394.222 336.5 417.722 309 402.222 266.5C398.722 257.5 405.712 254 411.222 258.5C441.222 283 420.222 363 348.222 367C301.722 369 258.002 364.399 199.222 354.5C195.391 362.916 178.786 365.861 161.222 365.5C146.131 365.189 138.471 366.618 125.722 371C111.222 375.5 104.315 354.224 114.222 352C138.722 346.5 151.222 339.5 172.222 337.5C165.177 309.411 161.551 294.328 162.222 282L147.222 269.5C143.234 298.964 139.722 314 130.222 337.5C120.722 357 80.7222 347.5 113.222 326C120.722 320.5 123.222 308 120.722 298L114.222 269.5C112.927 260.949 109.698 260.003 101.222 262.5L40.7222 278.5C34.7222 280 31.3544 281.275 28.2232 291C17.2222 328.5 -11.7776 313 5.22317 280C14.2232 265 32.8095 253.162 61.2232 245C70.7232 242.5 76.7615 230.972 79.2232 212.5C81.8219 193 67.7232 177.5 73.7232 139.5C74.2232 131 78.5089 125 70.2232 110.5C64.2232 100 55.7232 87 55.2232 76.5C55.2232 73 62.7232 67.1667 72.7232 65.5C81.7232 64 82.7232 59.5 84.7232 59.5H105.223Z" fill="#2FAFFF"/>
</svg>
