<svg width="1167" height="588" viewBox="0 0 1167 588" fill="none" xmlns="http://www.w3.org/2000/svg">
<path d="M30.4272 263.336C-17.0732 253.336 -6.07272 198.836 43.4273 198.836C81.5653 199.108 100.452 206.15 129.927 230.336C196.423 280.788 247.927 289.336 281.927 258.336C325.752 217.303 352.305 196.665 405.927 167.336C480.38 124.962 541.152 117.906 689.427 140.336C701.927 142.227 714.063 136.781 731.927 121.836C734.768 169.887 770.927 213.336 822.927 239.336C890.001 269.991 929.427 253.296 1001.93 183.336C992.183 242.772 981.313 272.941 944.927 316.836C918.427 303.336 877.798 286.434 850.927 282.836C882.911 297.487 898.008 307.443 921.427 327.336L1048.93 370.836C1119.93 394.836 1065.43 445.223 1026.93 430.336C951.927 401.336 898.437 385.73 790.927 369.336C771.427 366.363 758.448 359.413 731.927 338.336C732.991 356.565 739.563 366.063 762.427 381.336C698.109 391.105 662.218 397.218 598.927 410.836C579.752 414.962 559.082 426.761 535.621 440.154L534.427 440.836C569.927 456.336 597.94 473.336 616.427 498.836C630.927 518.836 601.427 553.536 566.427 538.836C516.427 517.836 460.427 496.836 434.427 472.336C415.856 454.836 418.735 428.493 441.927 425.336C463.048 422.461 479.427 415.836 489.427 409.336L419.427 417.336C401.927 418.336 395.384 445.836 401.427 456.336C425.468 498.108 452.427 551.336 445.927 570.336C442.164 581.336 397.699 609.836 370.927 555.336C356.927 526.836 346.427 515.343 322.927 490.836C291.556 458.121 285.102 438.366 314.927 397.836C292.186 373.453 282.111 358.221 269.427 328.836C217.927 347.836 167.427 340.336 138.927 313.836C108.927 285.336 92.4269 273.836 30.4272 263.336Z" fill="#333333"/>
<path d="M30.4272 263.336C-17.0732 253.336 -6.07272 198.836 43.4273 198.836C81.5653 199.108 100.452 206.15 129.927 230.336C196.423 280.788 247.927 289.336 281.927 258.336C325.752 217.303 352.305 196.665 405.927 167.336C480.38 124.962 541.152 117.906 689.427 140.336C701.927 142.227 714.063 136.781 731.927 121.836C734.768 169.887 770.927 213.336 822.927 239.336C890.001 269.991 929.427 253.296 1001.93 183.336C992.183 242.772 981.313 272.941 944.927 316.836C918.427 303.336 877.798 286.434 850.927 282.836C882.911 297.487 898.008 307.443 921.427 327.336L1048.93 370.836C1119.93 394.836 1065.43 445.223 1026.93 430.336C951.927 401.336 898.437 385.73 790.927 369.336C771.427 366.363 758.448 359.413 731.927 338.336C732.991 356.565 739.563 366.063 762.427 381.336C698.109 391.105 662.218 397.218 598.927 410.836C579.752 414.962 559.082 426.761 535.621 440.154L534.427 440.836C569.927 456.336 597.94 473.336 616.427 498.836C630.927 518.836 601.427 553.536 566.427 538.836C516.427 517.836 460.427 496.836 434.427 472.336C415.856 454.836 418.735 428.493 441.927 425.336C463.048 422.461 479.427 415.836 489.427 409.336L419.427 417.336C401.927 418.336 395.384 445.836 401.427 456.336C425.468 498.108 452.427 551.336 445.927 570.336C442.164 581.336 397.699 609.836 370.927 555.336C356.927 526.836 346.427 515.343 322.927 490.836C291.556 458.121 285.102 438.366 314.927 397.836C292.186 373.453 282.111 358.221 269.427 328.836C217.927 347.836 167.427 340.336 138.927 313.836C108.927 285.336 92.4269 273.836 30.4272 263.336Z" fill="#333333"/>
<path d="M968.427 317.836V329.836C1029.88 333.769 1064.38 335.808 1122.93 350.836C1164.93 361.616 1188.43 316.836 1138.43 303.836C1072.43 285.336 1029.57 281.363 1004.43 249.336C995.422 282.032 987.355 296.814 968.427 317.836Z" fill="#333333"/>
<path d="M796.427 18.3366C838.927 -8.1634 925.927 -3.66346 959.927 17.3366C952.071 23.9178 948.927 26.3369 943.927 35.3366C962.509 27.7964 970.427 26.3365 991.427 26.3366C1006.93 26.3366 1016.93 40.3366 1002.93 47.8366C983.927 57.3365 997.836 78.3367 1001.43 94.8366C1004.69 109.832 1004.93 118.337 1004.93 133.337C1004.93 168.337 938.927 234.337 876.427 234.337C815.427 234.337 749.427 162.337 749.427 127.337C749.504 110.539 751.662 101.593 758.427 86.3366C764.927 68.8365 762.927 52.8366 751.927 47.3366C738.427 40.5867 746.927 26.3367 770.427 26.3366C787.177 26.4317 797.182 29.0229 812.927 35.8366C809.109 28.8395 805.168 25.0345 796.427 18.3366ZM886.054 170.337C880.814 170.445 878.092 171.028 873.554 172.837C869.554 174.337 870.888 179.67 872.554 181.337C877.054 185.837 879.054 189.337 885.054 189.337H887.054C893.054 189.337 895.054 185.837 899.554 181.337C901.22 179.67 902.554 174.337 898.554 172.837C894.016 171.028 891.294 170.445 886.054 170.337ZM824.927 111.337C815.427 111.337 811.033 112.63 803.927 115.336C809.769 117.809 812.927 121.336 812.927 125.836C812.927 141.836 843.927 148.836 849.427 126.836H855.427C851.282 117.472 847.565 114.527 839.427 111.836C845.427 136.836 819.927 138.836 824.927 111.337ZM942.427 111.337C947.427 138.836 921.927 136.836 927.927 111.836C919.79 114.527 916.072 117.472 911.927 126.836H917.927C923.427 148.836 954.427 141.836 954.427 125.836C954.427 121.336 957.586 117.809 963.427 115.336C956.321 112.63 951.927 111.337 942.427 111.337Z" fill="#333333"/>
</svg>
