<svg width="671" height="634" viewBox="0 0 671 634" fill="none" xmlns="http://www.w3.org/2000/svg">
<path d="M134.132 447.022C60.0245 432.789 49.9513 355.957 109.393 314.774C64.4136 265.304 96.4961 189.214 201.966 190.675C239.192 191.191 284.07 167.628 336.091 133.979L475.769 43.6303L642.451 301.318L502.772 391.667C454.124 423.135 405.634 458.014 392.043 494.032C359.647 579.886 274.432 587.872 244.751 525.086C178.537 561.084 116.954 515.52 134.132 447.022ZM245.665 387.577C249.007 391.47 252.403 394.684 256.037 397.266C262.348 401.752 268.696 403.867 275.332 405.002C281.451 406.049 288.545 406.338 295.575 406.833C302.925 407.35 311.508 408.141 322.152 410.125C361.322 418.274 394.062 412.373 412.57 394.978C422.065 386.054 427.418 374.342 427.369 361.254C427.321 348.374 422.065 335.248 412.469 322.906C404.182 312.247 398.538 305.695 394.097 300.393C389.724 295.172 386.544 291.198 382.709 285.269L382.007 284.174C378.582 278.768 376.369 274.428 373.584 268.68C370.57 262.456 366.908 254.622 360.584 242.693C353.263 228.879 343.446 218.705 331.719 213.379C319.801 207.967 306.923 208.047 294.89 213.048C271.443 222.793 252.642 250.222 244.008 289.269C241.451 299.808 238.65 307.971 236.105 314.895C233.675 321.509 231.029 328.098 229.474 334.109C227.788 340.625 227.113 347.284 228.617 354.879C230.069 362.215 233.407 369.671 238.504 378.12L244.619 388.254L245.665 387.577ZM248.327 372.192C229.351 340.744 244.366 336.496 255.167 291.935C271.638 217.063 324.606 199.317 350.447 248.066C362.851 271.468 364.664 278.495 373.076 291.5C381.488 304.505 387.154 309.041 403.411 329.949C437.278 373.507 399.374 414.54 324.332 398.861C279.261 390.441 269.23 402.394 248.328 372.192L248.327 372.192ZM272.326 504.716C274.626 516.421 281.25 527.505 293.019 532.836C304.789 538.166 317.489 535.832 327.803 529.842C338.142 523.836 347.031 513.745 352.672 501.289C358.314 488.833 360.036 475.496 357.731 463.763C355.43 452.059 348.807 440.974 337.037 435.644C325.268 430.313 312.567 432.646 302.253 438.637C291.913 444.642 283.025 454.733 277.384 467.19C271.743 479.646 270.02 492.984 272.326 504.716ZM120.859 266.677C120.894 279.597 128.288 290.183 138.02 297.081C147.775 303.994 160.647 307.893 174.32 307.855C187.995 307.817 200.844 303.849 210.56 296.881C220.254 289.93 227.59 279.303 227.554 266.383C227.518 253.462 220.124 242.876 210.392 235.979C200.637 229.065 187.766 225.167 174.092 225.206C160.418 225.243 147.569 229.212 137.852 236.18C128.16 243.13 120.823 253.756 120.859 266.677ZM297.752 522.385C282.733 515.583 278.293 492.991 287.834 471.924C297.376 450.857 317.285 439.292 332.304 446.093C347.322 452.896 351.763 475.489 342.222 496.556C332.681 517.623 312.77 529.187 297.752 522.385ZM174.288 296.383C151.161 296.447 132.377 283.133 132.331 266.645C132.285 250.159 150.997 236.741 174.124 236.677C197.251 236.613 216.036 249.928 216.082 266.415C216.127 282.902 197.416 296.319 174.288 296.383ZM162.948 462.725C161.071 474.505 163.466 487.194 172.676 496.256C181.886 505.318 194.611 507.507 206.359 505.44C218.135 503.368 229.959 496.96 239.55 487.214C249.14 477.466 255.355 465.54 257.236 453.733C259.112 441.953 256.718 429.265 247.508 420.202C238.299 411.14 225.572 408.951 213.824 411.018C202.049 413.09 190.225 419.498 180.635 429.245C171.045 438.992 164.829 450.917 162.948 462.725ZM104.61 391.027C109.099 403.142 119.69 410.53 131.204 413.649C142.745 416.774 156.17 415.995 168.992 411.245C181.814 406.495 192.507 398.339 199.225 388.448C205.928 378.581 209.15 366.077 204.661 353.961C200.173 341.845 189.581 334.458 178.067 331.339C166.527 328.213 153.102 328.993 140.279 333.742C127.457 338.493 116.764 346.649 110.045 356.54C103.343 366.407 100.122 378.912 104.61 391.027ZM180.722 488.079C168.97 476.516 172.592 453.777 188.813 437.292C205.034 420.807 227.709 416.818 239.461 428.381C251.213 439.944 247.592 462.682 231.372 479.166C215.151 495.651 192.474 499.642 180.722 488.079ZM165.007 400.488C143.32 408.522 121.096 402.502 115.368 387.042C109.641 371.582 122.579 352.536 144.266 344.501C165.952 336.466 188.175 342.487 193.902 357.947C199.63 373.407 186.693 392.453 165.007 400.488Z" fill="#AFE885"/>
</svg>
