<svg width="255" height="384" viewBox="0 0 255 384" fill="none" xmlns="http://www.w3.org/2000/svg">
<path d="M142.451 39.3213C154.061 49.2813 164.207 60.7944 172.674 73.4756C106.652 172.134 86.7339 230.538 93.3209 334.728C71.5819 343.657 48.0019 348.045 23.9689 347.055C20.2499 215.607 47.4529 147.094 142.451 39.3213ZM102.52 14.0733C113.81 19.0856 124.33 25.3016 133.981 32.5293C46.6109 136.717 9.30788 202.159 12.9799 346.226C4.83588 345.334 -3.33513 343.819 -11.4791 341.642C-25.4591 337.906 -38.5357 332.449 -50.5586 325.55C-37.1921 187.565 -5.61412 117.201 102.52 14.0733ZM103.5 305.793C115.459 308.135 124 309.328 134.811 310.373C125.309 317.91 115.078 324.407 104.303 329.755C103.871 321.469 103.6 313.496 103.5 305.793ZM52.7749 0.841796C61.2889 1.71475 69.8369 3.26973 78.3569 5.54688C82.7899 6.73201 87.1319 8.09299 91.3799 9.61524C-7.64413 102.279 -45.8488 168.712 -61.8974 318.402C-77.7862 307.45 -91.5009 293.83 -102.621 278.302C-83.963 148.856 -49.4304 86.4039 52.7749 0.841796ZM107.164 244.965C133.777 252.241 150.934 256.213 177.522 260.96C168.941 275.724 158.408 288.94 146.387 300.329C130.429 299.251 119.498 298.077 103.472 295.564C103.61 277.441 104.786 260.784 107.164 244.965ZM-134.641 188.326C-124.566 199.169 -117.071 206.585 -105.316 217.258C-108.473 230.906 -111.208 245.297 -113.69 260.663C-125.649 238.759 -132.945 214.088 -134.641 188.326ZM149.359 133.337C168.569 142.836 181.513 148.577 201.308 156.05C202.936 175.931 201.232 196.501 195.758 216.981C192.579 228.874 188.28 240.157 183.019 250.745C155.648 246.329 137.873 242.055 109.141 233.428C115.782 198.995 128.59 167.955 149.359 133.337ZM-115.403 94.9698C-102.417 112.465 -92.8098 123.487 -77.9521 138.254C-88.3013 159.204 -96.0825 180.977 -102.305 204.961C-115.809 193.539 -123.895 185.729 -135 173.896C-134.773 159.476 -132.785 144.819 -128.88 130.208C-125.553 117.762 -121.003 105.982 -115.403 94.9698ZM180.508 86.417C190.071 103.903 196.659 123.156 199.798 143.323C182.692 137.208 171.331 132.233 154.996 124.159C162.538 112.154 171.018 99.6647 180.508 86.417ZM-64.7685 34.3623C-55.4448 49.7917 -48.4086 59.8129 -36.2314 74.0518C-50.8429 92.1082 -62.7097 109.695 -72.499 127.728C-89.2506 111.203 -98.1974 100.156 -109.331 83.9991C-97.5692 64.4239 -82.3415 47.6545 -64.7685 34.3623ZM-0.821121 4.26661C4.46088 10.7025 7.78387 15.3898 11.8549 22.0489C-3.69412 37.1749 -17.2621 51.5258 -29.1511 65.5157C-40.2802 51.1937 -46.8115 41.7286 -55.3359 27.711C-38.6593 16.7613 -20.2081 8.7789 -0.821121 4.26661ZM35.3039 0C29.8419 4.98139 24.5869 9.86827 19.5289 14.6729C16.6929 10.2171 14.2169 6.63132 10.8359 1.99317C18.8829 0.723046 27.0579 0.047427 35.3039 0Z" fill="black" fill-opacity="0.06"/>
<path d="M213.047 197.697C211.318 209.624 209.715 216.101 205.547 227.197C227.984 285.37 236.898 312.172 236.547 334.197C226.147 319.392 221.106 310.307 212.547 293.697C202.5 274.197 177.047 273.197 179.547 300.697C182.184 329.697 186.401 346.285 196.547 377.197C200.047 387.861 218.047 386.197 212.547 369.697C203.341 342.355 200.019 327.819 197.547 303.197C209.737 326.638 216.318 338.436 226.047 348.697C239.047 361.697 256.679 350.197 254.547 334.197C247.228 279.264 234.378 250.03 213.047 197.697Z" fill="black" fill-opacity="0.06"/>
</svg>
