<svg width="483" height="474" viewBox="0 0 483 474" fill="none" xmlns="http://www.w3.org/2000/svg">
<path d="M350.84 -199.613C369.798 -201.696 389.833 -196.428 412.12 -183.519C426.659 -175.082 440.266 -164.687 452.577 -152.601C480.762 -124.924 516.041 -105.778 554.607 -97.2301C571.45 -93.4954 587.588 -87.7484 602.578 -80.1593C604.05 -79.4107 605.497 -78.6542 606.91 -77.8875C627.49 -66.7191 641.435 -53.4877 649.469 -37.551C664.161 -8.39276 657.17 32.4686 633.19 57.5026C611.758 79.8747 582.699 87.2978 554.598 94.475C550.802 95.4459 546.872 96.443 543.082 97.4566C514.358 105.14 486.036 116.003 458.911 129.732C455.476 131.465 451.98 133.293 448.595 135.063C435.604 141.845 422.172 148.854 407.954 153.262L407.417 153.428C390.076 158.704 371.633 156.783 355.475 148.014C347.392 143.628 340.439 137.837 334.875 130.952C329.313 124.079 325.137 116.119 322.628 107.413L322.475 106.872C318.422 92.5503 316.979 77.4675 315.589 62.8719C315.224 59.0763 314.851 55.1488 314.433 51.324C311.165 21.0916 304.833 -8.56731 295.622 -36.8382C294.407 -40.5678 293.101 -44.406 291.846 -48.1183C282.549 -75.5909 272.935 -104 280.013 -134.163C287.937 -167.909 318.386 -196.04 350.84 -199.613Z" fill="black" fill-opacity="0.06"/>
<path d="M134.253 -17.2312C155.692 -32.4751 177.47 -39.2087 197.215 -36.6815C205.052 -35.688 212.455 -33.2893 219.287 -29.5817C228.483 -24.5912 236.642 -17.2126 243.434 -7.66366C255.115 8.75167 258.198 25.5179 252.597 42.1737C247.058 58.643 233.408 74.4388 210.868 90.4661C188.044 106.707 165.277 116.67 145.024 119.272C122.013 122.236 103.893 115.433 92.6333 99.6147C81.3561 83.7564 79.735 62.6659 88.0777 40.2252C96.094 18.6596 112.497 -1.75123 134.253 -17.2312Z" fill="black" fill-opacity="0.06"/>
<path d="M169.341 157.301C185.275 133.524 204.799 118.294 225.825 113.259C242.892 109.166 260.337 111.717 276.726 120.611C279.136 121.919 281.515 123.359 283.869 124.935C302.009 137.084 311.572 152.877 312.29 171.878C312.998 190.734 305.193 212.056 288.432 237.082C279.936 249.771 270.845 260.846 261.43 270.065C252.015 279.285 242.271 286.636 232.471 291.861C210.287 303.7 189.341 303.77 171.893 292.086C154.381 280.356 144.644 259.591 144.481 233.616C144.32 208.57 153.155 181.468 169.341 157.301Z" fill="black" fill-opacity="0.06"/>
<path d="M482.535 237.886C483.693 210.264 489.497 190.212 500.288 176.592C511.2 162.819 526.938 156.267 547.067 157.114C558.767 157.6 569.407 160.424 578.603 165.414C585.435 169.122 591.472 174.018 596.585 180.051C609.464 195.229 615.688 217.158 614.59 243.442C613.468 270.119 605.294 294.997 591.581 313.47C577.313 332.695 558.746 342.831 539.304 342.017C519.905 341.198 504.326 329.713 494.269 308.803C485.415 290.404 481.361 265.886 482.535 237.886Z" fill="black" fill-opacity="0.06"/>
<path d="M317.338 252.77C320.039 246.456 322.83 240.637 325.729 235.295C335.531 217.233 346.503 204.705 359.005 197.231C375.328 187.477 393.781 186.889 413.854 195.477C416.458 196.592 418.962 197.802 421.372 199.11C437.761 208.004 449.407 221.241 455.277 237.781C462.514 258.154 460.384 282.824 449.133 309.142C437.691 335.882 419.783 358.061 398.695 371.577C376.828 385.595 354.111 388.749 334.732 380.458C315.426 372.197 304.071 354.598 301.906 329.545C299.988 307.407 305.328 280.852 317.338 252.77Z" fill="black" fill-opacity="0.06"/>
</svg>
