<svg width="53" height="53" viewBox="0 0 53 53" fill="none" xmlns="http://www.w3.org/2000/svg">
<path d="M7.76167 45.2383C3.42647 40.9031 0.728551 35.1989 0.127609 29.0975C-0.473334 22.9961 1.05988 16.8751 4.46601 11.7775C7.87214 6.67979 12.9404 2.92085 18.8073 1.14112C24.6742 -0.638617 30.9767 -0.329029 36.641 2.01713C42.3052 4.36329 46.9807 8.60086 49.8708 14.0078C52.7609 19.4148 53.6869 25.6566 52.4909 31.6697C51.2948 37.6828 48.0508 43.0951 43.3116 46.9846C38.5724 50.8741 32.6312 52.9999 26.5003 53L26.5003 50.0399C31.9463 50.0398 37.2239 48.1514 41.4337 44.6964C45.6435 41.2414 48.5252 36.4336 49.5876 31.0922C50.65 25.7508 49.8275 20.2062 47.2602 15.4032C44.6929 10.6003 40.5397 6.83604 35.5082 4.75195C30.4767 2.66787 24.8782 2.39286 19.6666 3.97379C14.4551 5.55472 9.95294 8.89378 6.92729 13.422C3.90163 17.9503 2.53968 23.3875 3.0735 28.8073C3.60731 34.2272 6.00386 39.2942 9.85481 43.1452L7.76167 45.2383Z" fill="white"/>
</svg>
