<svg width="191" height="156" viewBox="0 0 191 156" fill="none" xmlns="http://www.w3.org/2000/svg">
<g clip-path="url(#clip0_90_522)">
<path d="M107.239 1.15356C109.628 0.965485 110.83 1.30016 112.674 2.89478L123.109 12.4715C123.993 13.7838 124.127 14.6085 123.978 16.1716L122.239 39.2428L173.109 31.625C175.892 31.1349 177.022 31.625 178.978 33.3662L189.63 43.5959C190.446 44.4189 190.517 45.2495 190.5 46.8605L187.891 91.697C187.713 94.7158 186.587 94.7441 182.674 95.3971L156.152 99.3148L153.233 139.586L44.8478 155.687L30.9348 143.063L32.2391 122.821L12.8913 104.103L14.413 80.1614L0.5 66.8846L3.54348 24.8777C4.19565 15.0833 6.36957 16.3891 13.5435 15.5187L107.239 1.15356ZM9.63043 21.8306L6.80435 61.8786L16.3696 60.355C20.5 59.702 21.8043 61.2256 21.587 63.6198L19.1957 99.0972L34.1957 96.9206C37.8913 96.4853 39.8478 96.9206 39.6304 99.7501L37.2391 137.186L135.342 123.257L138.109 86.4733C138.393 82.324 140.065 81.9026 144.413 81.2496L169.63 77.7672L172.239 37.7192L104.63 46.4252C102.457 46.6429 101.587 45.5546 101.804 43.5959L104.848 7.24785L9.63043 21.8306Z" fill="#0780E4"/>
<path d="M47.6359 19.6343L38.3984 52.9414L26.2267 54.6543L28.8602 30.784L22.6273 55.1606L10.6924 56.84L13.2521 24.4725L22.1559 23.2196L18.945 49.0567L25.7553 22.7131L35.2748 21.3737L32.5849 47.1375L39.0636 20.8405L47.6359 19.6343ZM57.0864 50.3117L59.4446 36.9196L54.8981 37.5593L52.5394 50.9516L43.1622 52.271L48.9425 19.4505L58.3199 18.131L56.1607 30.3916L60.7072 29.7519L62.8664 17.4913L72.2438 16.1718L66.4638 48.9923L57.0864 50.3117ZM87.5581 13.0971C96.2725 11.8709 99.6138 17.0266 97.582 28.5641C96.5742 34.2857 94.7051 38.7796 91.9746 42.0457C89.2494 45.2805 85.7399 47.1997 81.4459 47.8039C77.152 48.4081 74.1546 47.4196 72.4538 44.8386C70.7899 42.2213 70.4677 38.0205 71.4864 32.2361C72.4886 26.5459 74.3364 22.0856 77.0299 18.8554C79.7546 15.6208 83.2642 13.7013 87.5581 13.0971ZM86.3872 19.7461C85.5346 19.8661 84.8107 20.3052 84.2155 21.0635C83.6255 21.7903 83.0872 22.9237 82.6003 24.4638C82.1455 25.9995 81.6768 28.1348 81.1951 30.8699C80.6968 33.6993 80.4068 35.8708 80.3251 37.3846C80.2486 38.8669 80.389 39.9049 80.7464 40.4985C81.1038 41.092 81.7246 41.3265 82.6086 41.2022C83.5242 41.0733 84.2768 40.6455 84.8668 39.9187C85.4568 39.1918 85.9794 38.0606 86.4346 36.525C86.8899 34.9893 87.369 32.7911 87.8729 29.9302C88.349 27.2267 88.6094 25.1359 88.6542 23.658C88.7364 22.1442 88.5825 21.0928 88.1938 20.5037C87.842 19.8787 87.2399 19.6262 86.3872 19.7461Z" fill="#0780E4"/>
<path d="M48.1678 58.4448L45.9996 65.5102L40.2692 66.3164L35.7098 92.2049L26.3323 93.5247L30.8917 67.6358L24.6875 68.509L25.9083 61.5768L48.1678 58.4448ZM57.2535 89.1739L59.6122 75.7812L55.0657 76.4212L52.707 89.8133L43.3296 91.1327L49.11 58.312L58.4874 56.9926L56.3279 69.2534L60.8748 68.6135L63.0339 56.3531L72.4113 55.0333L66.6309 87.854L57.2535 89.1739ZM83.9578 85.4159L84.157 79.0417L78.4261 79.8483L76.3331 86.4889L67.0031 87.8018L80.4557 53.9015L91.5378 52.3422L93.3826 84.0899L83.9578 85.4159ZM80.5196 73.2073L84.3557 72.6675L84.7478 59.6897L80.5196 73.2073ZM108.425 81.9735L108.624 75.5993L102.893 76.4055L100.8 83.0465L91.4696 84.3589L104.922 50.4587L116.004 48.8994L117.85 80.6471L108.425 81.9735ZM104.986 69.7645L108.822 69.2247L109.214 56.2473L104.986 69.7645ZM132.891 78.5306L133.09 72.1565L127.36 72.9626L125.266 79.6037L115.936 80.9165L129.389 47.0163L140.471 45.4566L142.316 77.2047L132.891 78.5306ZM129.453 66.3221L133.289 65.7823L133.681 52.8045L129.453 66.3221ZM167.078 41.7129L164.91 48.7779L159.18 49.5846L154.62 75.473L145.243 76.7929L149.802 50.904L143.598 51.7772L144.819 44.845L167.078 41.7129Z" fill="#0780E4"/>
<path d="M58.7886 96.3623C62.3882 95.8556 65.2738 96.6914 67.446 98.8688L62.3508 104.461C61.709 103.907 61.0716 103.506 60.4377 103.258C59.8412 102.974 59.1638 102.885 58.4064 102.992C56.9221 103.201 55.6734 104.174 54.659 105.911C53.6764 107.643 52.856 110.38 52.1969 114.121C51.5438 117.831 51.4203 120.454 51.8273 121.991C52.2708 123.492 53.219 124.14 54.6716 123.936C55.5238 123.816 56.3121 123.537 57.036 123.097C57.7973 122.622 58.7734 121.887 59.9647 120.892L63.0795 125.237C61.6156 126.73 59.9877 128.017 58.1964 129.096C56.4108 130.145 54.5077 130.811 52.4869 131.096C48.4769 131.66 45.5456 130.647 43.6923 128.056C41.8763 125.43 41.4749 121.24 42.4881 115.487C43.147 111.746 44.256 108.509 45.8151 105.776C47.3743 103.042 49.2616 100.891 51.4777 99.3223C53.6995 97.7222 56.1364 96.7353 58.7886 96.3623ZM78.2334 126.553L78.4321 120.179L72.7016 120.985L70.6082 127.626L61.2782 128.939L74.7308 95.0385L85.8129 93.4792L87.6582 125.227L78.2334 126.553ZM74.7947 114.344L78.6308 113.805L79.0229 100.827L74.7947 114.344ZM112.42 89.7352L110.252 96.8006L104.522 97.6068L99.9621 123.496L90.5847 124.815L95.1443 98.9266L88.9399 99.7994L90.1608 92.8676L112.42 89.7352ZM122.622 87.3802C124.674 87.0916 126.344 87.2243 127.632 87.7789C128.952 88.3291 129.863 89.1819 130.368 90.3372C130.879 91.4607 131.006 92.7457 130.752 94.1918C130.541 95.3867 130.169 96.4506 129.635 97.3844C129.139 98.282 128.588 99.0494 127.983 99.6863C127.409 100.319 126.633 101.057 125.653 101.899C124.456 102.926 123.542 103.837 122.909 104.631C122.282 105.394 121.869 106.341 121.669 107.473L121.545 108.18L113.636 109.293L113.81 108.303C114.076 106.794 114.471 105.512 114.996 104.457C115.52 103.402 116.069 102.558 116.642 101.926C117.215 101.293 117.92 100.612 118.757 99.8808C119.594 99.1495 120.212 98.5262 120.611 98.0103C121.047 97.4584 121.331 96.8054 121.464 96.0506C121.669 94.8874 121.219 94.3838 120.114 94.5392C118.946 94.7037 117.547 95.6514 115.918 97.3831L111.375 94.0673C114.547 90.2179 118.296 87.9887 122.622 87.3802ZM116.9 112.789C118.257 112.597 119.279 112.913 119.966 113.737C120.684 114.555 120.929 115.609 120.702 116.898C120.475 118.187 119.837 119.366 118.786 120.433C117.773 121.465 116.588 122.076 115.23 122.267C113.873 122.458 112.832 122.16 112.109 121.373C111.422 120.55 111.193 119.494 111.419 118.205C111.646 116.916 112.269 115.739 113.288 114.676C114.338 113.609 115.542 112.98 116.9 112.789Z" fill="#0780E4"/>
</g>
<defs>
<clipPath id="clip0_90_522">
<rect width="190" height="154.969" fill="white" transform="translate(0.5 0.71875)"/>
</clipPath>
</defs>
</svg>
