<svg width="248" height="246" viewBox="0 0 248 246" fill="none" xmlns="http://www.w3.org/2000/svg">
<path d="M29.8755 98.9941C26.8755 101.994 20.8755 102.494 13.877 93.9935C-1.27328 73.7946 -1.75318 54.4044 1.87695 41.4935C6.37545 25.4941 21.8755 6.21619 40.876 1.99349C60.6543 -2.40207 77.8761 -0.00594616 95.3762 13.9935C101.002 18.4941 105.875 26.4941 108.375 31.4941C114.875 42.9941 112.875 53.4941 106.875 53.9941C100.875 54.4941 99.0898 50.9941 96.3755 41.4941C92.3755 27.4941 74.8755 13.9935 54.8755 14.4941C41.3755 14.9941 27.8155 23.9941 22.3755 32.4941C14.3755 44.9941 10.3755 65.9941 23.8755 82.9941C30.8755 90.9941 33.3755 94.4941 29.8755 98.9941Z" fill="white"/>
<path d="M38.8748 66.9945L101.875 175.495L76.3755 161.994C66.9128 157.263 52.3755 160.994 44.3755 168.994C36.3755 176.494 34.3755 188.994 46.8755 195.994L117.375 236.994C135.375 246.994 160.875 247.994 175.875 239.994L217.375 216.494C248.875 198.494 253.875 157.494 241.875 133.494L206.375 70.4941C199.375 58.9941 174.875 60.9941 172.375 76.4941C157.375 64.9941 141.375 70.9941 136.875 86.4941C121.375 76.9941 108.375 84.4941 104.375 96.9942L76.3755 48.4945C68.3755 34.9942 52.8755 34.317 44.8748 39.4945C36.3755 44.9945 34.3752 58.9945 38.8748 66.9945Z" fill="white"/>
</svg>
